<svg id="Livello_1" data-name="Livello 1" xmlns="http://www.w3.org/2000/svg" viewBox="0 0 1271.23 671.02"><defs><style>.cls-1{fill:#c0b8b7;}.cls-2{fill:#dad6d5;}.cls-3{fill:#e6e2e2;}.cls-4,.cls-5{fill:none;stroke:#f9b233;stroke-miterlimit:10;stroke-width:7px;}.cls-5{stroke-dasharray:12.04 3.01;}</style></defs><polygon class="cls-1" points="85.99 158.04 70.6 41.57 142.44 15.1 281 4.51 137.31 83.92 85.99 158.04"/><polygon class="cls-2" points="96.25 68.04 85.99 158.04 281 4.51 96.25 68.04"/><path class="cls-3" d="M220.19,188.76l98.59,55.94a5,5,0,0,0,6.69-1.61l79.46-117.85Z" transform="translate(-123.94 -120.73)"/><path class="cls-3" d="M194.54,162.29l-48.79-27.1c-4.7-2.61-2.9-10,2.43-10H404.93Z" transform="translate(-123.94 -120.73)"/><path class="cls-4" d="M197.78,282.79c-1.95.54-3.86,1.13-5.74,1.75" transform="translate(-123.94 -120.73)"/><path class="cls-5" d="M189.19,285.52C147.68,300.41,123.7,335,127.92,365c4.34,30.83,39.12,60.92,61.64,53.42,16-5.33,28.37-30.5,20.55-46.57-7-14.31-30-21.56-43.84-15.07-32.92,15.46-42.09,122.34,2.74,172.6,54.37,61,149.18-5,286.31,17.81,196.67,32.76,202.44,202,365.75,235.61,242.55,50,554.06-256.41,516.44-401.37-13.92-53.63-73.61-77.35-68.5-134.24,4.83-53.74,63.55-93.46,117.9-120" transform="translate(-123.94 -120.73)"/><path class="cls-4" d="M1388.26,126.48q2.71-1.32,5.41-2.59" transform="translate(-123.94 -120.73)"/></svg>